<svg id="Capa_1" enable-background="new 0 0 508.007 508.007" height="512" viewBox="0 0 508.007 508.007" width="512" xmlns="http://www.w3.org/2000/svg"><g><g fill="#eeefee"><path d="m242.026 39.652h23.953v198.031h-23.953z"/><path d="m242.026 270.319h23.953v198.031h-23.953z"/><path d="m242.026 39.652h23.953v198.031h-23.953z"/><path d="m242.026 270.319h23.953v198.031h-23.953z"/><path d="m236.543 160.474h198.031v23.953h-198.031z" transform="matrix(.707 -.707 .707 .707 -23.658 287.786)"/><path d="m73.436 323.583h198.031v23.953h-198.031z" transform="matrix(.707 -.707 .707 .707 -186.767 220.225)"/><path d="m236.543 160.474h198.031v23.953h-198.031z" transform="matrix(.707 -.707 .707 .707 -23.658 287.786)"/><path d="m73.436 323.583h198.031v23.953h-198.031z" transform="matrix(.707 -.707 .707 .707 -186.767 220.225)"/><path d="m270.326 242.031h198.031v23.953h-198.031z"/><path d="m39.659 242.025h198.031v23.953h-198.031z"/><path d="m270.326 242.031h198.031v23.953h-198.031z"/><path d="m39.659 242.025h198.031v23.953h-198.031z"/><path d="m323.58 236.54h23.953v198.031h-23.953z" transform="matrix(.707 -.707 .707 .707 -138.991 335.557)"/><path d="m160.475 73.437h23.953v198.031h-23.953z" transform="matrix(.707 -.707 .707 .707 -71.432 172.452)"/><path d="m323.58 236.54h23.953v198.031h-23.953z" transform="matrix(.707 -.707 .707 .707 -138.991 335.557)"/><path d="m160.475 73.437h23.953v198.031h-23.953z" transform="matrix(.707 -.707 .707 .707 -71.432 172.452)"/></g><circle cx="254.005" cy="254.004" fill="#828a9e" r="76.619"/><ellipse cx="254.001" cy="39.652" fill="#f6c863" rx="39.642" ry="39.642" transform="matrix(.197 -.98 .98 .197 165.036 280.846)"/><circle cx="254.006" cy="468.355" fill="#f6c863" r="39.642"/><circle cx="405.575" cy="102.437" fill="#69b0ee" r="39.642"/><circle cx="102.435" cy="405.571" fill="#69b0ee" r="39.642"/><circle cx="468.358" cy="253.999" fill="#ef5261" r="39.642"/><ellipse cx="39.649" cy="254.004" fill="#ef5261" rx="39.642" ry="39.642" transform="matrix(.98 -.197 .197 .98 -49.314 12.808)"/><circle cx="405.571" cy="405.571" fill="#2cbfae" r="39.642"/><circle cx="102.441" cy="102.435" fill="#2cbfae" r="39.642"/></g></svg>